<?xml version="1.0" encoding="utf-8"?>
<!DOCTYPE svg PUBLIC "-//W3C//DTD SVG 1.1//EN" "http://www.w3.org/Graphics/SVG/1.1/DTD/svg11.dtd">
<svg version="1.1" id="Laag_1" xmlns="http://www.w3.org/2000/svg" xmlns:xlink="http://www.w3.org/1999/xlink" x="0px" y="0px"
	 width="100px" height="100px" viewBox="0 0 100 100" enable-background="new 0 0 100 100" xml:space="preserve">
<g>
	<g id="Laag_2">
	</g>
	<g id="Laag_1_1_">
		<path fill="#FFFFFF" d="M50,5.052c-24.782,0-44.944,20.162-44.944,44.944c0,23.32,17.849,42.546,40.608,44.734
			c0-2.935,0-25.561,0-28.708L35.257,55.907V42.012c1.792-0.519,3.107-2.171,3.107-4.127c0-5.682-8.598-5.682-8.598,0
			c0,1.957,1.315,3.609,3.107,4.127v7.029l-4.408-3.334V33.7c4.713-1.418,3.689-8.416-1.236-8.416c-4.966,0-5.954,7.102-1.149,8.438
			v13.171l6.793,5.138v4.885l2.186,2.124h-6.411l-6.823-6.622c1.882-2.849-0.174-6.661-3.588-6.661c-6.89,0-4.69,11.135,1.765,8.215
			l7.679,7.454h9.832l5.768,5.605c0,2.944,0,22.418,0,24.993C23.051,88.804,7.441,71.225,7.441,49.996
			C7.441,26.529,26.533,7.437,50,7.437c23.467,0,42.559,19.092,42.559,42.559c0,21.784-16.45,39.8-37.598,42.268v-2.667
			c19.633-2.446,34.948-19.239,34.948-39.602c0-22.006-17.904-39.909-39.909-39.909c-22.006,0-39.909,17.903-39.909,39.909
			c0,18.875,13.171,34.73,30.804,38.86v-2.179C24.441,82.59,12.209,67.696,12.209,49.996c0-20.838,16.953-37.792,37.791-37.792
			c20.838,0,37.792,16.953,37.792,37.792c0,19.176-14.35,35.032-32.831,37.466c0-8.453,0-15.39,0-19.456l0.636-0.48h7.104
			l11.162-5.941c2.69,2.732,7.362,0.823,7.362-3.013c0-6.317-9.841-5.246-8.498,0.917L62.106,65.14h-3.35l19.362-14.617V36.742
			c4.749-1.374,3.765-8.427-1.193-8.427c-4.959,0-5.934,7.054-1.192,8.427v12.58L61.047,60.409v-8.224l7.545-5.424v-5.942
			c4.748-1.374,3.763-8.427-1.193-8.427c-4.961,0-5.935,7.054-1.192,8.427v4.72l-7.545,5.423V62.21l-6.086,4.595
			c0,3.181,0,24.906,0,28.06c23.598-1.344,42.367-20.96,42.367-44.869C94.943,25.214,74.782,5.052,50,5.052z M26.167,27.976
			c0.792-0.484,1.768-0.401,2.433,0.245c0.978,0.951,0.673,3.033-1.145,3.253C25.072,31.475,24.715,28.927,26.167,27.976z
			 M16.869,51.422c-1.146-1.183-0.425-3.282,1.367-3.282c1.094,0,1.915,0.819,1.915,1.915C20.151,51.841,18.061,52.57,16.869,51.422
			z M32.149,37.885c0-2.53,3.83-2.53,3.83,0C35.979,40.415,32.149,40.415,32.149,37.885z M76.925,56.656
			c1.093,0,1.916,0.819,1.916,1.915c0,1.095-0.821,1.915-1.916,1.915c-1.092,0-1.914-0.819-1.914-1.915
			C75.011,57.476,75.831,56.656,76.925,56.656z M76.925,30.717c2.559,0,2.559,3.796,0,3.796
			C74.368,34.513,74.368,30.717,76.925,30.717z M67.399,34.778c2.531,0,2.531,3.829,0,3.829
			C64.869,38.607,64.869,34.778,67.399,34.778z"/>
		<path fill="#CFCFCE" d="M50,0.599c-27.238,0-49.397,22.159-49.397,49.397c0,30.04,26.789,53.337,56.742,48.85
			c23.767-3.558,42.051-24.108,42.051-48.85C99.397,22.758,77.238,0.599,50,0.599z M50.27,97.231c0-5.396,0-36.603,0-41.189
			l6.009-5.736V32.249l5.818-6.349c6.452,2.73,8.477-8.261,1.67-8.261c-3.466,0-5.509,3.915-3.524,6.755l-6.347,6.928v17.964
			l-6.01,5.736v1.679l-4.189-3.98v-9.265l0.073,0.089l7.693-6.305V23.715c4.357-1.781,3.067-8.278-1.622-8.278
			c-2.37,0-4.299,1.928-4.299,4.299c0,2.11,1.529,3.866,3.536,4.227V36.11l-5.382,4.41v-8.793c1.624-0.615,2.784-2.182,2.784-4.019
			c0-5.681-8.599-5.681-8.599,0c0,2.073,1.475,3.808,3.431,4.211v21.823l6.573,6.247c0,3.982,0,33.371,0,37.196
			C22.83,96.076,2.761,75.347,2.761,49.996C2.761,23.948,23.952,2.757,50,2.757c26.047,0,47.239,21.191,47.239,47.239
			C97.239,75.942,76.202,97.088,50.27,97.231z M63.767,20.024c3.144,0,2.03,5.031-0.835,3.63l-0.801-0.733
			C61.347,21.616,62.314,20.024,63.767,20.024z M42.893,29.484h-1.424c-1.859-0.748-1.522-3.673,0.712-3.672
			C44.42,25.811,44.748,28.736,42.893,29.484z M49.841,21.651c-1.055,0-1.914-0.859-1.914-1.914c0-1.056,0.859-1.915,1.914-1.915
			c1.056,0,1.915,0.859,1.915,1.915C51.755,20.792,50.897,21.651,49.841,21.651z"/>
	</g>
</g>
</svg>
